<?xml version="1.0" encoding="utf-8"?>
<!-- Generator: Adobe Illustrator 17.0.0, SVG Export Plug-In . SVG Version: 6.00 Build 0)  -->
<!DOCTYPE svg PUBLIC "-//W3C//DTD SVG 1.1//EN" "http://www.w3.org/Graphics/SVG/1.1/DTD/svg11.dtd">
<svg version="1.1" id="svg2" xmlns:svg="http://www.w3.org/2000/svg"
	 xmlns="http://www.w3.org/2000/svg" xmlns:xlink="http://www.w3.org/1999/xlink" x="0px" y="0px" width="645px" height="585px"
	 viewBox="0 0 645 585" enable-background="new 0 0 645 585" xml:space="preserve">
<g>
	<path fill="#242C2E" d="M284.101,121.103h103.487V15.066H110.102v562.508h170.256c-2.243-1.296-3.756-3.715-3.756-6.492V128.603
		C276.601,124.46,279.959,121.103,284.101,121.103z M142.106,43.103h95.995V92.6h-95.995V43.103z M240.108,139.607v49.497h-95.995
		v-49.497H240.108z M143.612,234.602h95.995v49.497h-95.995V234.602z M145.112,325.093h95.995v49.497h-95.995V325.093z
		 M146.113,410.097h95.995v49.497h-95.995V410.097z M243.608,553.088h-95.995V503.59h95.995V553.088z M264.607,91.612V42.114h95.995
		v49.498H264.607z"/>
	<path fill="#242C2E" d="M291.601,136.103v427.479H512.09V136.103H291.601z M313.091,182.596h67.497v28.499h-67.497V182.596z
		 M314.09,243.098h67.497v28.499H314.09V243.098z M314.59,303.093h67.497v28.499H314.59V303.093z M315.589,363.595h67.497v28.499
		h-67.497V363.595z M316.09,417.087h67.497v28.499H316.09V417.087z M384.586,506.088h-67.497v-28.499h67.497V506.088z
		 M411.585,181.593h67.497v28.499h-67.497V181.593z M412.584,242.095h67.497v28.499h-67.497V242.095z M413.083,302.091h67.497
		v28.499h-67.497V302.091z M414.083,362.592h67.497v28.499h-67.497V362.592z M414.583,416.085h67.497v28.499h-67.497V416.085z
		 M483.079,505.085h-67.497v-28.499h67.497V505.085z"/>
</g>
</svg>
